<svg xmlns="http://www.w3.org/2000/svg" xmlns:xlink="http://www.w3.org/1999/xlink" width="76.781" height="76.781" viewBox="0 0 76.781 76.781">
  <defs>
    <filter id="Ellipse_1" x="0" y="0" width="76.781" height="76.781" filterUnits="userSpaceOnUse">
      <feOffset dy="3" input="SourceAlpha"/>
      <feGaussianBlur stdDeviation="5" result="blur"/>
      <feFlood flood-opacity="0.161"/>
      <feComposite operator="in" in2="blur"/>
      <feComposite in="SourceGraphic"/>
    </filter>
    <linearGradient id="linear-gradient" x1="7.533" y1="-2.149" x2="7.418" y2="-2.23" gradientUnits="objectBoundingBox">
      <stop offset="0" stop-color="silver"/>
      <stop offset="1" stop-color="silver" stop-opacity="0"/>
    </linearGradient>
    <linearGradient id="linear-gradient-2" x1="7.22" y1="-2.416" x2="7.363" y2="-2.308" xlink:href="#linear-gradient"/>
  </defs>
  <g id="Group_1932" data-name="Group 1932" transform="translate(15 12)">
    <g transform="matrix(1, 0, 0, 1, -15, -12)" filter="url(#Ellipse_1)">
      <circle id="Ellipse_1-2" data-name="Ellipse 1" cx="23.391" cy="23.391" r="23.391" transform="translate(15 12)" fill="#fff"/>
    </g>
    <g id="National_Printing_Office__NPO_" data-name="National_Printing_Office_(NPO)" transform="translate(3.899 3.899)">
      <g id="g6108" transform="translate(0)">
        <path id="path5858" d="M-63.253,681.536a19.492,19.492,0,0,1-19.492,19.492,19.492,19.492,0,0,1-19.492-19.492,19.492,19.492,0,0,1,19.492-19.492A19.492,19.492,0,0,1-63.253,681.536Z" transform="translate(102.238 -662.044)" fill="#0038a8" stroke="#0038a8" stroke-linecap="square" stroke-width="0.2"/>
        <path id="path5856" d="M7.29,756.982A14.593,14.593,0,0,1-7.3,771.574a14.592,14.592,0,0,1-14.592-14.593A14.592,14.592,0,0,1-7.3,742.389,14.592,14.592,0,0,1,7.29,756.982Z" transform="translate(26.795 -737.489)" fill="#fff" stroke="#0038a8" stroke-linecap="square" stroke-width="0.049"/>
        <path id="rect5725" d="M29.542,1039.15H48.966a1.936,1.936,0,0,1,0,3.872H29.542a1.936,1.936,0,0,1,0-3.872Z" transform="translate(-19.688 -1016.152)" fill="none" stroke="#0038a8" stroke-linecap="square" stroke-width="0.2"/>
        <path id="circle3059-1" d="M20.495,760.374l-.784.783.389,5.934q-.2.013-.393.038l-.713-5.415-.639.639.963,4.84a6,6,0,0,0-2.176.9l-2.74-4.1h-.9l3.325,4.334c-.1.08-.2.164-.3.25L12.6,764.1H11.487v1.109l4.472,3.922c-.087.1-.171.2-.251.306l-4.333-3.326v.9l4.1,2.742a6,6,0,0,0-.9,2.174l-4.84-.963-.639.639,5.414.714c-.017.13-.03.26-.038.392l-5.933-.388-.784.783.784.783,5.933-.389c.009.132.021.264.038.393l-5.414.713.5.5h.834l4.144-.824a6,6,0,0,0,.225.824H26.187a5.964,5.964,0,0,0,.226-.824l4.144.824h.834l.5-.5-5.414-.714q.025-.194.038-.393l5.933.389.784-.783-.784-.783-5.933.388c-.009-.132-.021-.262-.038-.392l5.414-.714-.639-.639-4.84.963a6,6,0,0,0-.9-2.175l4.1-2.741v-.9l-4.333,3.325c-.08-.1-.165-.206-.251-.3l4.472-3.922V764.1H28.394l-3.922,4.472q-.148-.13-.3-.25l3.325-4.334h-.9l-2.741,4.1a6,6,0,0,0-2.175-.9l.963-4.84L22,761.714l-.713,5.415q-.195-.026-.393-.038l.389-5.934-.783-.783Zm8.994,18.748-.507.5.632.485v-.9l-.125-.084Zm-1,1-.986.979.894,1.02H29.5v-1.108l-1.017-.891ZM27,781.593l-.506.5.092.136h.9L27,781.593Z" transform="translate(-1.048 -754.378)" fill="#fcd116"/>
        <path id="rect5725-4" d="M29.542,1039.15H48.966a1.936,1.936,0,0,1,0,3.872H29.542a1.936,1.936,0,0,1,0-3.872Z" transform="translate(-19.688 -1016.152)" fill="#fff" stroke="#0038a8" stroke-linecap="square" stroke-width="0.5"/>
        <path id="path5658" d="M300.275,1045.329a22.174,22.174,0,0,0-.13-2.39c-.34-2.733-1.4-3.161-1.4-3.161h-4.3s1.16.533,1.406,3.161c.1,1.014.127,2.39.127,2.39Z" transform="translate(-270.246 -1016.741)" stroke="#0038a8" stroke-width="0.5"/>
        <path id="path5565" d="M332.958,1055.85l-3.032,4.578,3.673-.006s-.02-1.626-.13-2.391S332.958,1055.85,332.958,1055.85Z" transform="translate(-303.57 -1031.834)" fill="#fff" stroke="#0038a8" stroke-width="0.1"/>
        <path id="path4961-2" d="M316.168,1051.827l-.244.206-3.123,2.688a1.09,1.09,0,0,0-.145.124l0,0a1.073,1.073,0,1,0,1.73,1.229l2.082-3.862C316.617,1051.939,316.4,1051.667,316.168,1051.827Z" transform="translate(-287.069 -1028.011)" fill="#fff"/>
        <path id="path4961-4" d="M316.168,1051.827l-.244.206-3.123,2.688a1.09,1.09,0,0,0-.145.124l0,0a1.073,1.073,0,1,0,1.73,1.229l2.082-3.862C316.617,1051.939,316.4,1051.667,316.168,1051.827Z" transform="translate(-287.069 -1028.011)" fill="url(#linear-gradient)"/>
        <path id="path4961" d="M316.168,1051.827l-.244.206-3.123,2.688a1.09,1.09,0,0,0-.145.124l0,0a1.073,1.073,0,1,0,1.73,1.229l2.082-3.862C316.617,1051.939,316.4,1051.667,316.168,1051.827Z" transform="translate(-287.069 -1028.011)" stroke="#0038a8" stroke-width="0.01" fill="url(#linear-gradient-2)"/>
        <path id="path5658-0" d="M232.628,1045.329a22.168,22.168,0,0,0-.13-2.39c-.34-2.733-1.4-3.161-1.4-3.161h-4.305s1.16.533,1.406,3.161c.1,1.014.127,2.39.127,2.39Z" transform="translate(-206.725 -1016.741)" fill="#ff0" stroke="#0038a8" stroke-width="0.5"/>
        <path id="path5471" d="M314.492,1097.782a1.073,1.073,0,1,1-1.073-1.072A1.073,1.073,0,0,1,314.492,1097.782Z" transform="translate(-287.063 -1070.202)"/>
        <path id="path5658-0-3" d="M162.086,1045.329a22.159,22.159,0,0,0-.13-2.39c-.34-2.733-1.4-3.161-1.4-3.161h-4.3s1.16.533,1.406,3.161c.1,1.014.127,2.39.127,2.39Z" transform="translate(-140.485 -1016.741)" fill="#e61484" stroke="#0038a8" stroke-width="0.5"/>
        <path id="path5727-5" d="M31.387,1041.8a1.89,1.89,0,1,1-1.89-1.89A1.89,1.89,0,0,1,31.387,1041.8Z" transform="translate(-19.688 -1016.862)" fill="none" stroke="#0038a8" stroke-linecap="square" stroke-width="0.2"/>
        <path id="path5658-0-6" d="M91.5,1045.329a22.159,22.159,0,0,0-.13-2.39c-.34-2.733-1.4-3.161-1.4-3.161h-4.3s1.16.533,1.406,3.161c.1,1.014.127,2.39.127,2.39Z" transform="translate(-74.2 -1016.741)" fill="#009eef" stroke="#0038a8" stroke-width="0.5"/>
        <g id="text5721" transform="translate(27.681 27.643)">
          <path id="path6080" d="M403.951,452.1v.692h.169v-.414l.314.414h.158V452.1h-.168v.417l-.314-.417Z" transform="translate(-403.951 -452.096)" fill="#0038a8"/>
          <path id="path6082" d="M416.962,452.1h-.3v.692h.181V452.6h.123a.294.294,0,0,0,.205-.068.249.249,0,0,0,.073-.19.227.227,0,0,0-.073-.179A.306.306,0,0,0,416.962,452.1Zm-.009.356h-.114v-.212h.114a.125.125,0,0,1,.085.027.1.1,0,0,1,.03.078.1.1,0,0,1-.03.08A.122.122,0,0,1,416.953,452.457Z" transform="translate(-415.883 -452.096)" fill="#0038a8"/>
          <path id="path6084" d="M427.3,452.02a.387.387,0,0,0-.267.1.338.338,0,0,0-.107.251.344.344,0,0,0,.107.253.4.4,0,0,0,.535,0,.344.344,0,0,0,.107-.253.339.339,0,0,0-.107-.25A.387.387,0,0,0,427.3,452.02Zm0,.154a.181.181,0,0,1,.132.057.2.2,0,0,1,.054.141.205.205,0,0,1-.054.142.181.181,0,0,1-.132.058.187.187,0,0,1-.134-.058.2.2,0,0,1-.057-.142.2.2,0,0,1,.056-.141A.187.187,0,0,1,427.306,452.174Z" transform="translate(-425.528 -452.02)" fill="#0038a8"/>
        </g>
        <path id="path5727" d="M31.387,1041.8a1.89,1.89,0,1,1-1.89-1.89A1.89,1.89,0,0,1,31.387,1041.8Z" transform="translate(-19.688 -1016.862)" fill="#fff" stroke="#0038a8" stroke-linecap="square" stroke-width="0.5"/>
        <path id="rect5725-4-8" d="M29.542,975.4H48.966a1.936,1.936,0,1,1,0,3.872H29.542a1.936,1.936,0,1,1,0-3.872Z" transform="translate(-19.688 -956.29)" fill="#fff" stroke="#0038a8" stroke-linecap="square" stroke-width="0.5"/>
        <path id="path5727-5-8" d="M31.387,978.037a1.89,1.89,0,1,1-1.89-1.89A1.89,1.89,0,0,1,31.387,978.037Z" transform="translate(-19.688 -956.991)" fill="#fff" stroke="#0038a8" stroke-linecap="square" stroke-width="0.5"/>
        <g id="text5852" transform="translate(16.363 30.685)">
          <path id="path6087" d="M218.781,502.626l-.328.081-.086-.339.541-.161h.283v1.9h-.409Z" transform="translate(-218.367 -502.187)"/>
          <path id="path6089" d="M239.141,502.824a.335.335,0,0,0,.238-.079.263.263,0,0,0,.085-.2v-.005a.27.27,0,0,0-.088-.207.345.345,0,0,0-.244-.081.33.33,0,0,0-.237.079.272.272,0,0,0-.083.206v.005a.261.261,0,0,0,.087.2A.349.349,0,0,0,239.141,502.824Zm-.078,1.02a.9.9,0,0,1-.353-.062,1.085,1.085,0,0,1-.266-.161l.218-.315a.8.8,0,0,0,.2.122.557.557,0,0,0,.215.039.32.32,0,0,0,.268-.118.6.6,0,0,0,.114-.31.545.545,0,0,1-.164.094.622.622,0,0,1-.218.035.862.862,0,0,1-.277-.042.614.614,0,0,1-.213-.12.513.513,0,0,1-.136-.191.659.659,0,0,1-.047-.256v-.005a.656.656,0,0,1,.053-.264.614.614,0,0,1,.147-.209.678.678,0,0,1,.227-.137.825.825,0,0,1,.292-.05,1.1,1.1,0,0,1,.171.012.718.718,0,0,1,.141.036.551.551,0,0,1,.121.063.779.779,0,0,1,.11.093.651.651,0,0,1,.092.116.732.732,0,0,1,.07.151,1.094,1.094,0,0,1,.046.2,1.714,1.714,0,0,1,.016.249v.005a1.532,1.532,0,0,1-.054.419.954.954,0,0,1-.157.324.724.724,0,0,1-.257.21A.8.8,0,0,1,239.063,503.845Z" transform="translate(-237.179 -501.896)"/>
          <path id="path6091" d="M268.376,503.471a.327.327,0,0,0,.17-.044.4.4,0,0,0,.129-.124.6.6,0,0,0,.082-.188.951.951,0,0,0,.028-.238v-.005a.907.907,0,0,0-.03-.238.622.622,0,0,0-.085-.19.42.42,0,0,0-.132-.127.323.323,0,0,0-.168-.046.326.326,0,0,0-.17.044.392.392,0,0,0-.128.124.646.646,0,0,0-.082.188.9.9,0,0,0-.03.238v.005a.919.919,0,0,0,.03.24.622.622,0,0,0,.083.19.412.412,0,0,0,.131.125A.327.327,0,0,0,268.376,503.471Zm-.005.374a.787.787,0,0,1-.343-.074.773.773,0,0,1-.264-.2.936.936,0,0,1-.168-.308,1.2,1.2,0,0,1-.059-.382v-.005a1.176,1.176,0,0,1,.061-.382.958.958,0,0,1,.171-.31.8.8,0,0,1,.265-.207.789.789,0,0,1,.948.2.958.958,0,0,1,.17.308,1.178,1.178,0,0,1,.061.382v.005a1.177,1.177,0,0,1-.061.382.959.959,0,0,1-.171.31.8.8,0,0,1-.265.207A.774.774,0,0,1,268.37,503.845Z" transform="translate(-264.537 -501.896)"/>
          <path id="path6093" d="M298.868,502.626l-.328.081-.086-.339.541-.161h.283v1.9h-.409Z" transform="translate(-293.569 -502.187)"/>
        </g>
        <path id="path5856-2" d="M-24.36,755.623a15.7,15.7,0,0,1-15.7-15.7,15.7,15.7,0,0,1,15.7-15.7,15.7,15.7,0,0,1,15.7,15.7A15.7,15.7,0,0,1-24.36,755.623Z" transform="translate(43.852 -720.43)" fill="none"/>
        <g id="text5878" transform="translate(1.152 1.153)">
          <path id="path6012" d="M-23.252,375.745l-.15-.509,1.2-1.631-1.546.454-.16-.545,2.511-.738.138.47-1.239,1.685,1.6-.469.16.545Z" transform="translate(24.343 -351.118)" fill="#fff"/>
          <path id="path6014" d="M-28.675,319.691l-.815.421.876.272Zm-1.481.739-.047-.529,2.527-1.349.053.6-.564.29.1,1.1.606.187.052.585Z" transform="translate(30.254 -300.201)" fill="#fff"/>
          <path id="path6016" d="M-30.45,274.618l-.072.793-.529-.048.2-2.16.529.048-.072.793,2.078.189-.052.573Z" transform="translate(31.051 -257.619)" fill="#fff"/>
          <path id="path6018" d="M-24.626,249.257l.124-.562,2.555.565-.124.562Z" transform="translate(25.017 -234.605)" fill="#fff"/>
          <path id="path6020" d="M-10.731,196.544a.786.786,0,0,0,.055-.319.727.727,0,0,0-.074-.3.827.827,0,0,0-.184-.244.858.858,0,0,0-.274-.168l-.007,0a.871.871,0,0,0-.317-.061.789.789,0,0,0-.3.059.791.791,0,0,0-.257.171.768.768,0,0,0-.176.273.783.783,0,0,0-.056.321.731.731,0,0,0,.075.294.829.829,0,0,0,.184.244.857.857,0,0,0,.274.168l.007,0a.872.872,0,0,0,.317.061.79.79,0,0,0,.3-.059.8.8,0,0,0,.256-.169.763.763,0,0,0,.176-.275Zm.492.2a1.428,1.428,0,0,1-.3.481,1.387,1.387,0,0,1-.427.306,1.287,1.287,0,0,1-.5.115,1.344,1.344,0,0,1-.527-.094l-.007,0a1.322,1.322,0,0,1-.452-.287,1.355,1.355,0,0,1-.3-.425,1.348,1.348,0,0,1-.113-.517,1.44,1.44,0,0,1,.1-.56,1.427,1.427,0,0,1,.3-.481,1.385,1.385,0,0,1,.427-.306,1.287,1.287,0,0,1,.5-.115,1.343,1.343,0,0,1,.527.094l.007,0a1.322,1.322,0,0,1,.452.287,1.355,1.355,0,0,1,.3.425,1.349,1.349,0,0,1,.113.517,1.441,1.441,0,0,1-.1.56Z" transform="translate(13.972 -184.049)" fill="#fff"/>
          <path id="path6022" d="M7.047,141.237l.288-.446,2.019-.154L8,139.762l.309-.477,2.2,1.422-.266.411-2.085.16,1.4.9-.309.477Z" transform="translate(-4.724 -131.867)" fill="#fff"/>
          <path id="path6024" d="M52.563,106.711l-.851-.342.366.841Zm-1.527-.639.37-.381,2.672,1.033-.419.432-.588-.237-.771.794.254.581-.409.421Z" transform="translate(-46.031 -100.322)" fill="#fff"/>
          <path id="path6026" d="M83.266,77.26l.467-.336,1.222,1.7,1.059-.762.306.425-1.527,1.1Z" transform="translate(-76.294 -73.309)" fill="#fff"/>
          <path id="path6028" d="M153.65,35.384a.468.468,0,0,0,.277-.223.374.374,0,0,0,.016-.306l0-.007a.357.357,0,0,0-.219-.234.53.53,0,0,0-.356.023l-.418.153.275.752Zm-1.422-.886,1-.367a1.258,1.258,0,0,1,.418-.083.893.893,0,0,1,.358.066.808.808,0,0,1,.284.2.951.951,0,0,1,.191.322l0,.007a.916.916,0,0,1,.06.4.817.817,0,0,1-.114.348.981.981,0,0,1-.256.279,1.427,1.427,0,0,1-.368.2l-.411.15.269.737-.541.2Z" transform="translate(-141.051 -33.048)" fill="#fff"/>
          <path id="path6030" d="M202.015,22.976a.478.478,0,0,0,.3-.156.342.342,0,0,0,.066-.285v-.007a.334.334,0,0,0-.166-.255.528.528,0,0,0-.344-.034l-.563.1.13.74Zm-1.362-1.051,1.178-.207a1.032,1.032,0,0,1,.8.129.809.809,0,0,1,.324.55V22.4a.821.821,0,0,1-.063.537.9.9,0,0,1-.349.359l.791.81-.663.116-.7-.728h-.007l-.438.077.145.825-.567.1Z" transform="translate(-186.523 -21.447)" fill="#fff"/>
          <path id="path6032" d="M253.12,18.077l.575-.022.1,2.615-.575.022Z" transform="translate(-235.789 -18.029)" fill="#fff"/>
          <path id="path6034" d="M277.722,17.649l.528.055,1.054,1.729.166-1.6.565.058-.269,2.6-.487-.05-1.09-1.785-.171,1.655-.565-.058Z" transform="translate(-258.639 -17.649)" fill="#fff"/>
          <path id="path6036" d="M335.249,25.764l-.764-.223.149-.51,2.081.608-.149.51-.764-.223-.585,2-.553-.161Z" transform="translate(-312.192 -24.581)" fill="#fff"/>
          <path id="path6038" d="M369.345,41.115l.528.23-1.047,2.4-.528-.23Z" transform="translate(-343.943 -39.683)" fill="#fff"/>
          <path id="path6040" d="M390.5,53l.451.28.192,2.016.85-1.369.483.3-1.38,2.223-.416-.258-.2-2.082-.878,1.413-.483-.3Z" transform="translate(-363.492 -50.84)" fill="#fff"/>
          <path id="path6042" d="M439.07,95.651a1.491,1.491,0,0,1-.339-.455,1.288,1.288,0,0,1-.125-.5,1.266,1.266,0,0,1,.085-.5,1.406,1.406,0,0,1,.294-.462l.005-.005a1.338,1.338,0,0,1,1.452-.349,1.391,1.391,0,0,1,.474.3,1.93,1.93,0,0,1,.217.236,1.509,1.509,0,0,1,.148.233,1.246,1.246,0,0,1,.093.24,1.725,1.725,0,0,1,.048.255l-.564.072a1.473,1.473,0,0,0-.033-.184.988.988,0,0,0-.057-.166.914.914,0,0,0-.091-.157,1.046,1.046,0,0,0-.137-.154.671.671,0,0,0-.259-.153.793.793,0,0,0-.295-.035.806.806,0,0,0-.294.079.857.857,0,0,0-.258.191l-.005.005a.92.92,0,0,0-.184.281.785.785,0,0,0-.06.3.748.748,0,0,0,.064.3.8.8,0,0,0,.191.263.911.911,0,0,0,.5.255l.255-.273-.424-.4.34-.363.83.776-.776.83a1.918,1.918,0,0,1-.551-.114A1.579,1.579,0,0,1,439.07,95.651Z" transform="translate(-409.962 -88.676)" fill="#fff"/>
          <path id="path6044" d="M491.863,162.269a.788.788,0,0,0,.21.247.728.728,0,0,0,.274.132.829.829,0,0,0,.305.015.858.858,0,0,0,.3-.1l.007,0a.87.87,0,0,0,.25-.2.782.782,0,0,0,.182-.578.765.765,0,0,0-.1-.31.782.782,0,0,0-.211-.249.73.73,0,0,0-.273-.131.828.828,0,0,0-.305-.015.857.857,0,0,0-.3.1l-.007,0a.87.87,0,0,0-.25.2.789.789,0,0,0-.183.576A.763.763,0,0,0,491.863,162.269Zm-.468.251a1.428,1.428,0,0,1-.177-.539,1.385,1.385,0,0,1,.039-.524,1.287,1.287,0,0,1,.233-.458,1.344,1.344,0,0,1,.409-.345l.007,0a1.323,1.323,0,0,1,.51-.163,1.339,1.339,0,0,1,.986.289,1.514,1.514,0,0,1,.541.976,1.385,1.385,0,0,1-.039.524,1.287,1.287,0,0,1-.233.458,1.342,1.342,0,0,1-.409.345l-.006,0a1.322,1.322,0,0,1-.51.163,1.339,1.339,0,0,1-.985-.289A1.441,1.441,0,0,1,491.4,162.52Z" transform="translate(-459.359 -151.769)" fill="#fff"/>
          <path id="path6046" d="M512.187,210.509l.621,1.893-.5.163-.442-1.346-.529.173.389,1.186-.5.163-.389-1.186-.963.316-.179-.547Z" transform="translate(-476.722 -198.748)" fill="#fff"/>
          <path id="path6048" d="M524.567,258.362l.3,1.97-.518.078-.212-1.4-.551.083.187,1.235-.518.078-.187-1.235-1,.152-.086-.569Z" transform="translate(-488.253 -243.682)" fill="#fff"/>
          <path id="path6050" d="M529.554,306.583l.013.576-2.616.061-.013-.576Z" transform="translate(-492.908 -288.962)" fill="#fff"/>
          <path id="path6052" d="M524.252,331.789a1.35,1.35,0,0,1,.164-.519,1.29,1.29,0,0,1,.789-.622,1.378,1.378,0,0,1,.535-.041h.008a1.367,1.367,0,0,1,.511.159,1.351,1.351,0,0,1,.4.327,1.3,1.3,0,0,1,.241.46,1.4,1.4,0,0,1,.044.562,1.737,1.737,0,0,1-.067.329,1.407,1.407,0,0,1-.113.264,1.183,1.183,0,0,1-.152.212,1.52,1.52,0,0,1-.185.175l-.378-.412a1.386,1.386,0,0,0,.251-.286.8.8,0,0,0,.118-.346.728.728,0,0,0-.029-.31.72.72,0,0,0-.147-.259.817.817,0,0,0-.24-.185.88.88,0,0,0-.308-.091h-.007a.9.9,0,0,0-.322.02.829.829,0,0,0-.278.125.719.719,0,0,0-.3.517.8.8,0,0,0,.039.386,1.475,1.475,0,0,0,.188.332l-.409.322a1.925,1.925,0,0,1-.17-.23,1.25,1.25,0,0,1-.12-.253,1.232,1.232,0,0,1-.061-.291A1.7,1.7,0,0,1,524.252,331.789Z" transform="translate(-490.375 -311.512)" fill="#fff"/>
          <path id="path6054" d="M514.487,378.256l-.566,1.891-.491-.147.4-1.343-.509-.152-.353,1.182-.491-.147.354-1.182-.527-.157-.407,1.361-.491-.147.571-1.909Z" transform="translate(-478.327 -355.56)" fill="#fff"/>
        </g>
        <path id="path5885" d="M-69.108,676.908a18.6,18.6,0,0,0-18.606,18.586A18.6,18.6,0,0,0-69.108,714.08,18.6,18.6,0,0,0-50.5,695.494,18.6,18.6,0,0,0-69.108,676.908Z" transform="translate(88.6 -676.002)" fill="none"/>
        <g id="text5887" transform="translate(6.216 30.541)">
          <path id="path6057" d="M53.672,501.27a.487.487,0,0,0,.338.149.39.39,0,0,0,.29-.133l.005-.006a.371.371,0,0,0,.111-.315.551.551,0,0,0-.192-.318l-.341-.312-.562.614Zm.134-1.737.821.75a1.309,1.309,0,0,1,.277.345.928.928,0,0,1,.111.362.84.84,0,0,1-.049.359.989.989,0,0,1-.205.331l-.005.006a.953.953,0,0,1-.344.249.849.849,0,0,1-.376.062,1.016,1.016,0,0,1-.38-.1,1.481,1.481,0,0,1-.358-.245l-.336-.307-.551.6-.442-.4Z" transform="translate(-51.97 -499.533)" fill="#fff"/>
          <path id="path6059" d="M91.188,527.594l.5.322-.579.908.931.594.579-.908.5.322-1.464,2.294-.5-.322.588-.921-.931-.594-.588.921-.5-.322Z" transform="translate(-87.421 -525.883)" fill="#fff"/>
          <path id="path6061" d="M139.4,552.948l.544.249-1.133,2.475-.544-.249Z" transform="translate(-133.005 -549.691)" fill="#fff"/>
          <path id="path6063" d="M165.09,562.237l.571.18-.653,2.077,1.294.407-.163.519-1.866-.587Z" transform="translate(-157.425 -558.413)" fill="#fff"/>
          <path id="path6065" d="M210.326,573.394l.589.107-.487,2.678-.589-.107Z" transform="translate(-200.211 -568.89)" fill="#fff"/>
          <path id="path6067" d="M238.962,578.749a.486.486,0,0,0,.356-.1.389.389,0,0,0,.139-.287v-.008a.371.371,0,0,0-.114-.313.552.552,0,0,0-.35-.123l-.462-.024-.043.831Zm-1-1.426,1.11.057a1.309,1.309,0,0,1,.433.09.93.93,0,0,1,.316.209.838.838,0,0,1,.19.308.987.987,0,0,1,.052.386v.008a.952.952,0,0,1-.107.411.848.848,0,0,1-.25.287,1.016,1.016,0,0,1-.359.163,1.475,1.475,0,0,1-.432.038l-.454-.023-.042.815-.6-.031Z" transform="translate(-226.487 -572.579)" fill="#fff"/>
          <path id="path6069" d="M284.074,577.863a.486.486,0,0,0,.335-.156.389.389,0,0,0,.091-.306v-.008a.371.371,0,0,0-.163-.291.552.552,0,0,0-.365-.065l-.46.051.092.827Zm-1.217-1.246,1.105-.122a1.306,1.306,0,0,1,.442.02.928.928,0,0,1,.346.155.84.84,0,0,1,.238.273.989.989,0,0,1,.114.373v.008a.953.953,0,0,1-.039.423.849.849,0,0,1-.2.323,1.021,1.021,0,0,1-.328.218,1.476,1.476,0,0,1-.42.107l-.452.05.09.812-.6.066Z" transform="translate(-268.776 -571.792)" fill="#fff"/>
          <path id="path6071" d="M326.988,570.046l.582-.142.645,2.644-.582.142Z" transform="translate(-310.216 -565.612)" fill="#fff"/>
          <path id="path6073" d="M348.445,553.311l.512-.206,1.808,1.08-.625-1.555.548-.22,1.014,2.526-.473.19-1.868-1.114.645,1.606-.548.22Z" transform="translate(-330.365 -549.185)" fill="#fff"/>
          <path id="path6075" d="M394.164,530.716l1.74-1.089.283.452-1.236.773.293.468,1.088-.681.283.452-1.088.68.3.485,1.253-.784.282.452-1.757,1.1Z" transform="translate(-373.295 -527.792)" fill="#fff"/>
          <path id="path6077" d="M436.545,509.772a1.8,1.8,0,0,1-.53.322,1.615,1.615,0,0,1-.626.112l-.013-.552a1.779,1.779,0,0,0,.447-.071,1.026,1.026,0,0,0,.382-.216.523.523,0,0,0,.173-.242.214.214,0,0,0-.047-.21l-.005-.006a.236.236,0,0,0-.084-.063.217.217,0,0,0-.117-.009.853.853,0,0,0-.177.052,2.874,2.874,0,0,0-.263.122,3.366,3.366,0,0,1-.355.161,1.047,1.047,0,0,1-.315.072.619.619,0,0,1-.286-.052.793.793,0,0,1-.271-.212l-.005-.006a.785.785,0,0,1-.169-.3.767.767,0,0,1-.023-.324.888.888,0,0,1,.116-.324,1.212,1.212,0,0,1,.251-.3,1.628,1.628,0,0,1,.473-.3,1.593,1.593,0,0,1,.516-.111l.063.544a1.984,1.984,0,0,0-.4.088.915.915,0,0,0-.31.177.423.423,0,0,0-.153.224.206.206,0,0,0,.046.185l.005.006a.245.245,0,0,0,.095.07.229.229,0,0,0,.126.006.865.865,0,0,0,.185-.064q.109-.049.272-.13a2.773,2.773,0,0,1,.357-.15,1.025,1.025,0,0,1,.312-.057.621.621,0,0,1,.273.058.759.759,0,0,1,.245.194l.005.006a.839.839,0,0,1,.181.319.737.737,0,0,1,.019.335.933.933,0,0,1-.129.331,1.364,1.364,0,0,1-.267.309Z" transform="translate(-410.941 -506.847)" fill="#fff"/>
        </g>
        <path id="path5894" d="M-31.3,1121.258a.671.671,0,0,1-.671.671.671.671,0,0,1-.671-.671.671.671,0,0,1,.671-.671A.671.671,0,0,1-31.3,1121.258Z" transform="translate(36.887 -1092.623)" fill="#fff"/>
        <path id="path5894-1" d="M446.861,1121.258a.671.671,0,1,1-.671-.671A.671.671,0,0,1,446.861,1121.258Z" transform="translate(-412.114 -1092.623)" fill="#fff"/>
      </g>
    </g>
  </g>
</svg>
